# xmcd CD database file
#
# Track frame offsets:
#	150
#	2072
#	29480
#	44965
#	65988
#	79245
#	100661
#	119227
#	134708
#	147999
#	164864
#	178615
#	206023
#	221508
#	242531
#	255788
#	277204
#	295770
#	311250
#	324542
#	341407
#
# Disc length: 4735 seconds
#
# Revision: 0
# Processed by: cddbd v1.5.1PL2 Copyright (c) Steve Scherf et al.
# Submitted via: CDex 1.51
#
DISCID=52127d15
DTITLE=Play along for Flute - JAZZ SOLOS
DYEAR=2004
DGENRE=Jazz
TTITLE0=Start
TTITLE1=All the Blues
TTITLE2=All the Things You are
TTITLE3=Corcovado
TTITLE4=In Walked Bud
TTITLE5=In A Sentimental Mode
TTITLE6=Lullby Of Birdland
TTITLE7=My faorite Things_sound of music
TTITLE8=Oleo
TTITLE9=The Sidewinder
TTITLE10=The way you look tonight
TTITLE11=All the Blues_BT
TTITLE12=All the Things You are_BT
TTITLE13=Corcovado__BT
TTITLE14=In Walked Bud_BT
TTITLE15=In A Sentimental Mode_BT
TTITLE16=Lullby Of Birdland_BT
TTITLE17=My faorite Things_sound of music_BT
TTITLE18=Oleo_BT
TTITLE19=The Sidewinder_BT
TTITLE20=The way you look tonight_BT
EXTD=YEAR: 2004
EXTT0=
EXTT1=
EXTT2=
EXTT3=
EXTT4=
EXTT5=
EXTT6=
EXTT7=
EXTT8=
EXTT9=
EXTT10=
EXTT11=
EXTT12=
EXTT13=
EXTT14=
EXTT15=
EXTT16=
EXTT17=
EXTT18=
EXTT19=
EXTT20=
PLAYORDER=
